<svg width="380" height="158" viewBox="0 0 380 158" fill="none" xmlns="http://www.w3.org/2000/svg">
<path d="M47.6886 92.3174C61.799 67.6268 75.9993 42.9908 90.1452 18.322C89.7334 18.0795 89.3217 17.8396 88.9072 17.597C76.1275 43.634 64.1003 70.0116 52.9483 96.7872C49.8072 104.329 46.7315 111.898 43.7185 119.491C44.3811 119.674 45.041 119.856 45.7008 120.036C50.8624 106.346 55.863 92.5954 60.8064 78.826C65.6762 65.2556 70.6824 51.6988 75.0859 37.9703C77.5099 30.4043 79.6857 22.7074 80.9781 14.8606C81.079 14.25 80.7327 13.7213 80.0838 13.6886C72.7737 13.3098 67.6449 19.6248 64.3156 25.3538C59.9121 32.9335 56.332 41.0883 53.2618 49.2867C47.0423 65.8988 43.3096 83.4376 42.1753 101.137C41.5209 111.35 41.7608 121.603 42.8678 131.775C43.0041 133.023 44.6592 133.015 44.8092 131.775C46.7615 115.313 48.5529 98.8342 50.5161 82.372C51.4895 74.1954 52.4656 66.0188 53.4417 57.8422C54.3824 49.9409 55.4867 42.0368 56.0539 34.1C56.6674 25.5119 56.3729 16.8556 53.9626 8.54273C53.7526 7.81501 52.711 7.82319 52.4956 8.54273C46.906 27.2862 44.1575 46.7275 42.7642 66.2014C41.36 85.817 40.8665 105.632 41.0301 125.294C41.1173 136.111 41.9489 147.013 45.3491 157.349C45.6681 158.316 47.1732 158.183 47.1705 157.103C47.0668 119.254 53.7908 81.516 67.1105 46.076C70.8732 36.0651 75.1623 26.2642 79.9393 16.6976C79.3967 16.4714 78.8568 16.2424 78.3169 16.0134C72.82 48.2674 67.244 80.9083 69.2018 113.751C69.7444 122.841 70.8732 131.911 72.7382 140.829C72.9754 141.957 74.8377 141.72 74.7668 140.554C72.8609 109.063 76.0347 77.3297 84.1847 46.8501C86.4887 38.2402 89.1908 29.7419 92.2638 21.3745C91.8302 21.5517 91.3967 21.7288 90.9631 21.9033C96.6291 25.1848 96.8118 32.6637 96.4137 38.4554C95.8357 46.8555 94.6141 55.212 93.9924 63.6148C93.3353 72.5191 92.9263 81.4452 92.7682 90.3713C92.6236 98.5588 92.5582 106.793 93.4144 114.945C94.3196 123.555 96.3155 132.031 100.356 139.733C100.752 140.488 101.968 140.134 101.949 139.303C101.224 109.758 100.52 80.0225 104.585 50.6659C105.728 42.3993 107.271 34.1954 109.27 26.0924C108.654 26.0924 108.04 26.0924 107.424 26.0924C111.037 52.6527 113.458 79.3739 114.666 106.152C115.004 113.686 115.266 121.219 115.427 128.755C115.942 128.684 116.457 128.616 116.973 128.545C114.006 121.497 111.099 114.419 108.16 107.357C107.77 106.422 106.224 106.834 106.62 107.782C109.562 114.844 112.539 121.892 115.454 128.965C115.77 129.728 117.014 129.717 117 128.755C116.621 101.761 114.966 74.7814 112.016 47.9458C111.198 40.4806 110.276 33.0262 109.27 25.5827C109.139 24.6206 107.637 24.7269 107.424 25.5827C100.291 54.427 99.2603 84.2553 99.6611 113.835C99.7784 122.326 100.007 130.816 100.239 139.303C100.771 139.158 101.303 139.017 101.832 138.872C93.9024 123.863 94.0633 106.231 94.3742 89.7008C94.5405 80.7747 94.9576 71.8514 95.6257 62.9471C95.9774 58.2728 96.3946 53.6039 96.8827 48.9432C97.2808 45.1411 97.8779 41.3445 98.1206 37.5288C98.516 31.2818 97.837 23.8548 91.8548 20.3743C91.3285 20.069 90.7505 20.3743 90.5542 20.9058C79.5494 50.6468 73.3817 82.1348 72.3483 113.83C72.0593 122.74 72.1847 131.658 72.7028 140.554C73.379 140.464 74.0552 140.371 74.7314 140.279C68.0893 108.401 70.786 75.708 75.574 43.773C76.94 34.6588 78.4724 25.5691 80.0265 16.485C80.1847 15.5719 78.8923 14.8333 78.4069 15.8036C61.3681 49.8618 50.6415 86.9617 46.8433 124.852C45.769 135.566 45.2564 146.332 45.3164 157.103C45.9244 157.021 46.5297 156.94 47.1378 156.855C44.0594 147.591 43.0696 137.872 42.8433 128.155C42.6197 118.463 42.9005 108.744 43.0887 99.0521C43.4677 79.6164 44.2421 60.1262 47.0587 40.8703C48.6374 30.0854 50.8706 19.4012 53.9626 8.9461C53.4745 8.9461 52.9864 8.9461 52.4956 8.9461C56.8964 24.0183 53.8889 40.238 52.0839 55.4873C50.1616 71.7315 48.3129 87.9865 46.2898 104.217C45.1446 113.402 43.9612 122.582 42.8678 131.775C43.514 131.775 44.1603 131.775 44.8092 131.775C41.0928 97.6158 47.4349 62.5082 63.0422 31.8787C66.4124 25.2639 71.2685 15.1386 80.0838 15.5419C79.7866 15.1495 79.4894 14.7598 79.1922 14.37C76.8964 28.2975 72.1057 41.538 67.394 54.7922C62.4915 68.5834 57.5045 82.342 52.4302 96.0678C49.5426 103.882 46.6279 111.685 43.7185 119.491C43.255 120.739 45.2264 121.252 45.7008 120.036C56.2393 93.195 67.5794 66.6646 79.7021 40.4996C83.1377 33.0861 86.5869 25.6782 90.1452 18.322C90.5432 17.5016 89.368 16.7848 88.9072 17.597C74.9059 42.3503 60.9564 67.1334 46.9169 91.8649C46.6333 92.3664 47.405 92.8161 47.6886 92.3174Z" fill="#201D1D"/>
<path d="M88.2792 72.6752C84.7689 85.4265 82.0526 98.3864 80.1852 111.476C78.3314 124.461 77.4661 137.486 77.0007 150.581C76.9596 151.736 78.8572 152.034 79.0735 150.86C82.7591 130.864 88.0355 111.36 95.8448 92.531C95.1219 92.3332 94.3991 92.1354 93.6762 91.9403C89.6839 112.341 86.6993 133.096 87.2305 153.925C87.2634 155.144 89.0815 155.44 89.4101 154.218C94.1225 136.746 100.084 119.73 106.828 102.93C106.127 102.838 105.423 102.744 104.722 102.651C103.399 115.947 102.512 129.289 102.52 142.656C102.523 143.927 104.404 144.181 104.755 142.957C107.663 132.817 111.132 122.857 114.987 113.037C114.423 113.262 113.862 113.49 113.298 113.717C115.174 114.712 115.532 116.879 115.647 118.811C115.801 121.369 115.664 123.968 115.65 126.528C115.623 131.985 115.595 137.445 115.565 142.902C115.56 143.943 116.964 144.271 117.498 143.42C122.695 135.153 126.315 126 128.109 116.424C127.419 116.424 126.729 116.424 126.039 116.424C127.443 122.792 128.859 129.159 130.247 135.53C130.461 136.51 131.69 136.437 132.191 135.782C136.214 130.53 140.2 125.255 144.19 119.979C143.571 119.901 142.955 119.819 142.336 119.741C144.163 125.333 145.34 131.086 145.964 136.928C146.06 137.811 146.953 138.155 147.646 137.616C150.37 135.505 151.882 132.443 151.999 129.029C152.043 127.772 150.099 127.786 150.033 129.029C149.877 131.904 148.503 134.44 146.255 136.239C146.813 136.47 147.374 136.7 147.933 136.928C147.257 130.918 146.005 125.011 144.291 119.207C144.026 118.307 142.947 118.307 142.44 118.968C138.401 124.212 134.363 129.452 130.354 134.719C131.003 134.803 131.652 134.885 132.301 134.969C130.891 128.604 129.505 122.231 128.109 115.861C127.892 114.864 126.233 114.828 126.039 115.861C124.256 125.268 120.787 134.234 115.708 142.385C116.351 142.556 116.994 142.729 117.641 142.902C117.695 136.554 117.753 130.205 117.81 123.857C117.846 119.884 118.651 114.064 114.459 111.753C113.75 111.36 113.051 111.753 112.769 112.433C108.753 122.193 105.398 132.202 102.562 142.358C103.306 142.458 104.051 142.558 104.796 142.656C104.692 129.292 105.231 115.923 106.866 102.651C106.992 101.63 105.275 101.167 104.867 102.115C97.7149 118.795 91.962 136.126 87.2715 153.635C87.9972 153.73 88.7228 153.827 89.4511 153.925C88.8871 133.248 91.8416 112.772 95.8448 92.531C96.1268 91.0976 94.2211 90.6343 93.6762 91.9403C85.8943 110.599 79.9552 130.297 77.039 150.305C77.729 150.397 78.4191 150.489 79.1118 150.581C79.0543 124.539 83.2382 98.2673 90.1357 73.1791C90.4615 71.995 88.6051 71.4911 88.2792 72.6752Z" fill="#201D1D"/>
<path d="M113.953 52.438C126.326 38.5824 138.96 24.9182 151.037 10.8001C151.836 9.86762 150.488 8.50033 149.686 9.44099C138.544 22.4708 129.305 36.9471 122.744 52.8399C122.336 53.8325 123.942 54.4724 124.451 53.5618C127.938 47.3081 131.366 41.0187 134.799 34.7349C136.329 31.9348 138.077 29.1648 139.316 26.217C140.333 23.8052 140.8 21.1801 139.341 18.8558C139.034 18.3664 138.395 18.1695 137.884 18.473C125.269 25.9026 115.04 37.1385 108.786 50.4308C108.161 51.7543 110.025 52.9056 110.767 51.5957C112.847 47.9261 114.429 43.9392 115.301 39.802C115.946 36.7448 116.109 33.2091 113.651 30.8902C111.496 28.8585 108.278 28.7628 105.535 29.2905C101.46 30.0781 97.7556 33.0477 93.45 32.3149C93.6756 32.8754 93.9039 33.4361 94.1295 33.9967C98.0138 28.9078 104.331 26.6655 110.245 24.9729C117.604 22.8674 125.035 21.0051 132.428 19.0336C140.143 16.9772 147.862 14.9374 155.568 12.8564C163.013 10.8438 170.439 8.63157 177.974 6.96901C186.218 5.14785 194.838 4.28647 202.992 7.02095C204.041 7.3737 204.403 5.79872 203.438 5.39401C196.354 2.4189 188.757 2.61301 181.304 3.84626C173.478 5.14513 165.813 7.49953 158.153 9.53125C142.043 13.8025 125.864 17.9289 109.835 22.5009C103.143 24.4096 96.4509 27.0456 92.1643 32.84C91.7539 33.3951 92.1616 34.4178 92.8438 34.5217C96.1654 35.0385 99.1173 33.9283 102.173 32.7333C104.823 31.697 107.979 30.5813 110.781 31.7353C114.168 33.1298 113.556 37.2014 112.863 40.089C111.988 43.7232 110.596 47.1686 108.786 50.4308C109.446 50.8164 110.107 51.2075 110.767 51.5957C116.775 38.5386 126.625 27.6089 138.96 20.3215C138.474 20.1957 137.987 20.0672 137.501 19.9387C139.137 22.5337 137.356 25.6155 136.084 27.9754C134.63 30.6798 133.168 33.3786 131.708 36.0803C128.735 41.582 125.764 47.0866 122.839 52.6157C123.407 52.8563 123.975 53.097 124.543 53.3376C130.808 37.7593 139.667 23.1408 151.037 10.8001C150.586 10.3462 150.135 9.89218 149.686 9.44099C137.161 23.1681 125.149 37.4037 112.917 51.3988C112.298 52.107 113.32 53.149 113.953 52.438Z" fill="#201D1D"/>
<path d="M118.406 33.058C131.506 28.4771 144.587 23.8198 157.723 19.3344C170.516 14.9692 183.478 10.9124 196.809 8.57005C204.472 7.22417 212.23 6.51161 220.01 6.55256C219.712 5.82911 219.414 5.10576 219.118 4.38231C203.74 16.5717 184.625 22.9243 169.581 35.6023C165.484 39.0558 161.828 42.9788 158.759 47.385C157.926 48.5835 159.485 49.6099 160.527 49.1649C172.442 44.0653 181.068 32.7195 183.161 19.894C183.313 18.9658 182.345 17.8575 181.393 18.5264C171.642 25.3786 160.744 30.3281 149.181 33.1318C149.718 33.4403 150.252 33.746 150.786 34.0518C150.233 31.9142 153.099 30.7239 154.702 30.2161C157.433 29.3534 160.388 29.0203 163.198 28.4771C169.185 27.3196 175.172 26.1593 181.16 25.0018C193.246 22.6622 205.326 20.3036 217.407 17.934C224.273 16.5854 231.142 15.2339 237.997 13.8198C237.533 13.0199 237.069 12.2201 236.606 11.4175C221.493 23.3038 211.778 40.4126 201.644 56.4458C190.016 74.8486 178.443 93.2842 166.853 111.709C160.331 122.072 153.821 132.44 147.307 142.809C148.15 143.306 148.991 143.8 149.834 144.297C164.738 116.601 179.617 88.8917 194.504 61.1878C198.683 53.4155 202.861 45.6432 207.04 37.871C207.767 36.5169 206.007 35.0536 204.89 36.2002C186.472 55.0562 171.647 77.0462 157.856 99.4485C153.905 105.869 150.027 112.337 146.152 118.804C147.001 119.036 147.849 119.265 148.698 119.497C149.588 102.703 154.127 86.3555 162.254 71.6464C162.986 70.3223 161.118 69.2849 160.272 70.4807C153.259 80.3605 147.882 91.1902 144.568 102.885C144.194 104.207 145.772 104.908 146.7 104.136C150.594 100.89 154.499 97.6548 158.384 94.3952C159.694 93.295 157.812 91.4169 156.511 92.5089C152.63 95.7685 148.769 99.0499 144.896 102.32C145.607 102.735 146.317 103.153 147.028 103.568C150.184 92.1512 155.274 81.2122 162.254 71.6464C161.592 71.256 160.933 70.8683 160.272 70.4807C151.879 85.4437 146.862 102.32 145.965 119.497C145.892 120.901 147.839 121.313 148.511 120.191C161.966 97.6958 175.479 75.067 192.058 54.7177C196.736 48.9765 201.649 43.4374 206.826 38.1494C206.11 37.5925 205.391 37.0356 204.676 36.4787C189.748 64.1607 174.806 91.8318 159.87 119.508C155.681 127.272 151.491 135.042 147.307 142.809C146.404 144.482 148.826 145.902 149.834 144.297C161.305 126.066 172.764 107.827 184.224 89.5851C190.014 80.3714 195.811 71.1604 201.582 61.9331C206.788 53.6066 211.862 45.1737 217.361 37.0411C223.243 28.3379 229.837 19.9378 238.338 13.6752C239.645 12.7115 238.878 10.7405 237.238 11.0462C210.94 15.9793 184.726 21.3873 158.49 26.6398C154.583 27.4233 146.74 28.9712 148.27 34.7506C148.454 35.4494 149.194 35.8372 149.875 35.6679C161.614 32.7468 172.732 27.6417 182.608 20.6202C182.019 20.1643 181.428 19.7084 180.84 19.2498C178.912 31.4856 170.5 42.0643 159.222 46.9182C159.811 47.5133 160.399 48.1057 160.99 48.6981C172.154 32.583 191.036 24.9226 207.298 15.2994C212.003 12.5176 216.585 9.5392 220.902 6.18132C221.816 5.46879 221.003 4.02472 220.01 4.01107C192.419 3.61795 166.069 13.7789 140.425 22.8287C132.881 25.4905 125.337 28.155 117.79 30.8167C116.399 31.3081 116.996 33.5522 118.406 33.058Z" fill="#201D1D"/>
<path d="M202.347 51.3372C200.569 77.5479 196.731 103.581 190.883 129.185C191.696 129.185 192.512 129.185 193.327 129.185C186.203 102.67 189.953 74.8929 193.575 48.1381C193.777 46.6616 191.865 46.0738 191.322 47.5147C182.91 69.7662 179.37 93.4449 177.073 117.017C176.419 123.757 175.857 130.505 175.3 137.253C175.191 138.566 176.902 138.708 177.529 137.858C193.455 116.219 202.688 90.6451 210.047 65.0195C212.145 57.7245 214.106 50.3911 216.059 43.0578C215.219 42.9457 214.379 42.8309 213.536 42.716C212.338 55.4577 211.138 68.2021 209.938 80.9438C209.341 87.3174 208.741 93.6883 208.141 100.059C207.584 105.979 206.842 111.92 206.709 117.867C206.572 123.967 207.292 130.04 209.982 135.575C210.505 136.657 211.948 136.198 212.303 135.271C218.672 118.644 222.668 101.205 224.236 83.4649C224.362 82.0594 221.978 81.7149 221.757 83.1286C218.585 103.398 217.51 123.946 218.598 144.434C218.669 145.79 220.799 146.252 221.088 144.773C224.776 125.977 228.464 107.182 232.149 88.3865C231.301 88.269 230.452 88.1569 229.604 88.0393C227.853 103.436 230.804 119.111 237.964 132.837C238.556 133.978 240.075 133.532 240.465 132.512C245.623 118.972 245.776 104.303 245.839 90.0024C245.847 88.195 243.253 88.2661 243.087 90.0024C241.477 106.594 247.947 123.541 260.169 134.831C261.266 135.845 262.78 134.823 262.542 133.447C260.251 120.183 257.919 106.928 255.601 93.6691C254.701 93.9179 253.801 94.1641 252.9 94.4129C257.51 110.151 268.134 123.771 282.277 132.025C283.534 132.761 284.677 131.339 284.137 130.161C278.139 117.094 273.147 103.589 269.149 89.7756C268.663 88.094 266.064 88.8021 266.525 90.5001C271.052 107.198 278.984 122.215 289.453 135.9C290.277 136.977 292.349 136.802 292.27 135.134C290.784 103.545 289.194 71.2482 296.823 40.2634C298.988 31.4673 301.91 22.8708 305.706 14.6461C304.924 14.4356 304.144 14.2223 303.361 14.009C299.719 46.73 297.576 79.5986 297.412 112.527C297.363 121.895 297.535 131.263 297.835 140.627C297.892 142.437 300.39 142.76 300.947 141.051C309.329 115.314 313.827 88.5533 317.411 61.782C318.428 54.189 319.374 46.5905 320.321 38.9892C319.339 38.9892 318.36 38.9892 317.381 38.9892C316.388 56.0565 315.387 73.1238 314.62 90.2048C314.238 98.7494 313.786 107.286 313.472 115.833C313.229 122.401 312.793 129.122 313.925 135.637C315.035 142.027 317.798 148.056 323.343 151.709C324.598 152.538 326.054 151.425 326.142 150.102C328.114 119.576 317.694 89.0318 323.725 58.6569C325.266 50.8943 327.994 43.684 331.883 36.8073C330.92 36.8073 329.958 36.8073 328.995 36.8073C331.965 43.1371 332.344 50.2516 332.925 57.1119C333.547 64.4753 334.172 71.8387 334.796 79.1994C336.054 94.0464 337.317 108.893 338.569 123.741C339.28 132.187 339.916 140.638 340.571 149.087C340.753 151.458 344.457 151.485 344.283 149.087C341.643 112.844 338.465 76.6402 335.415 40.4275C334.562 30.2861 333.708 20.1447 332.851 10.0033C332.677 7.90615 329.818 7.92529 329.614 10.0033C327.931 26.9968 326.183 43.9848 324.423 60.97C325.471 60.97 326.518 60.97 327.565 60.97C325.282 42.4235 320.659 24.2351 313.668 6.90259C313.036 5.33312 310.417 5.34954 310.488 7.33462C310.873 18.3537 315.725 28.908 323.921 36.2769C325.261 37.4827 327.437 35.957 326.474 34.3C316.865 17.7577 300.922 5.33318 282.566 0.0642499C281.322 -0.291205 280.272 0.889972 280.547 2.08758C284.339 18.4412 304.324 22.1215 315.25 32.1426C318.376 35.0109 320.692 38.4478 321.565 42.6477C322.375 42.0215 323.182 41.3981 323.992 40.7747C301.631 25.3561 276.699 13.8668 250.476 6.85346C249.404 6.56636 247.988 7.65728 248.484 8.84942C250.568 13.8422 254.338 17.4733 258.538 20.738C263.713 24.7574 269.034 28.5963 274.287 32.5118C285.266 40.6982 296.242 48.8818 307.22 57.0654C307.741 56.1713 308.262 55.2773 308.783 54.3859C285.694 37.767 260.491 20.2596 231.633 16.3496C223.808 15.2887 215.936 15.3844 208.146 16.6913C206.889 16.9019 206.78 18.7748 207.8 19.349C225.796 29.4384 243.422 40.1814 260.636 51.5587C262.171 52.5731 263.432 50.2052 262.043 49.1443C241.18 33.2145 218.315 16.3332 191.772 12.0431C184.58 10.881 177.338 10.7689 170.124 11.7697C168.727 11.9611 169.112 14.1676 170.448 14.1812C194.317 14.441 218.184 14.8156 242.05 15.1492C265.319 15.4746 288.673 16.3195 311.917 14.9141C324.778 14.1348 337.606 12.5954 350.177 9.72443C349.558 9.10376 348.939 8.48306 348.32 7.86238C342.985 27.8499 337.772 47.8702 332.519 67.8795C332.08 69.5502 334.543 70.7039 335.374 69.0853C343.486 53.2949 349.809 36.6269 354.187 19.4147C353.177 19.1358 352.171 18.8595 351.162 18.5806C345.622 50.1149 344.526 82.3575 347.78 114.209C348.699 123.216 349.915 132.214 351.617 141.103C351.999 143.099 355.253 142.651 355.158 140.622C353.93 114.693 353.952 88.7146 355.226 62.7883C354.258 62.9196 353.289 63.0508 352.321 63.182C354.98 74.2421 357.277 85.3816 359.301 96.5784C360.272 101.943 361.183 107.319 362.004 112.711C362.435 115.521 362.882 118.329 363.291 121.143C363.611 123.336 364.344 126.136 363.452 128.274C362.645 130.215 360.556 130.765 358.654 130.948C355.908 131.216 353.085 131.033 350.33 131.027C344.763 131.019 339.193 131.011 333.626 131.003C322.007 130.989 310.384 130.97 298.765 130.954C285.934 130.937 273.104 130.918 260.273 130.899C258.407 130.896 257.922 133.811 259.823 134.229C274.697 137.491 289.938 138.697 305.139 137.797C307.275 137.672 307.278 134.598 305.139 134.47C280.433 132.971 255.666 132.799 230.927 133.45C206.035 134.106 181.176 135.637 156.352 137.562C131.624 139.482 106.928 141.792 82.227 144.029C72.5576 144.906 62.2092 146.528 52.709 143.687C48.4649 142.416 44.5425 140.037 41.9622 136.359C39.0574 132.222 38.0018 127.134 37.3881 122.201C35.9098 110.313 35.236 98.2791 34.1968 86.3468C33.1167 73.9551 32.0393 61.5607 30.9592 49.1662C30.6864 46.0382 30.4136 42.9102 30.1436 39.7821C29.9554 37.6467 26.685 37.5756 26.7641 39.7821C27.6479 64.4261 28.5289 89.0673 29.4126 113.711C29.6636 120.719 29.9199 127.724 30.1682 134.732C31.0874 134.35 32.0093 133.967 32.9312 133.584C28.1634 129.822 28.0543 122.349 27.176 116.839C25.9759 109.323 24.7757 101.809 23.5783 94.2952C21.178 79.265 18.7505 64.2402 16.3802 49.2072C15.0273 40.6162 13.6226 32.036 12.2397 23.4504C11.907 21.3887 9.08392 22.1598 8.8848 23.907C5.7999 51.2414 8.16742 78.7756 11.7242 105.943C12.7252 113.594 13.819 121.23 14.9128 128.867C15.1855 130.757 18.2104 130.267 18.1886 128.424C17.8995 102.804 17.6103 77.1897 17.3185 51.5723C17.283 48.3076 17.2448 45.0457 17.2094 41.7837C17.1794 39.2737 16.9476 36.4655 18.085 34.1469C19.2796 31.7079 21.969 30.8356 24.4211 30.2477C27.3069 29.556 30.2364 29.0201 33.144 28.4159C45.7018 25.8046 58.2623 23.1934 70.8202 20.5849C85.0364 17.6291 99.2553 14.6735 113.472 11.7177C113.182 10.6678 112.893 9.61773 112.604 8.56504C83.3043 14.8703 56.7294 31.7352 37.5081 54.6565C27.9043 66.1076 20.1252 79.0189 14.6264 92.9336C11.8688 99.9087 9.71942 107.124 8.24379 114.48C6.82272 121.553 5.90626 130.568 13.0607 134.921C20.4961 139.441 30.4218 135.58 37.95 133.39C49.2367 130.109 60.5235 126.828 71.8103 123.544C71.2593 122.598 70.7111 121.652 70.1628 120.705C57.3213 136.624 39.0519 147.695 19.0805 151.917C13.3608 153.126 7.55645 153.714 1.71123 153.719C-0.579946 153.722 -0.560853 157.17 1.71123 157.276C34.6932 158.813 67.7216 157.894 100.573 154.597C109.787 153.673 118.978 152.554 128.149 151.272C130.609 150.927 129.561 147.181 127.118 147.523C94.7111 152.054 62.0346 154.162 29.3199 154.219C20.1143 154.236 10.9114 154.066 1.71123 153.719C1.71123 154.906 1.71123 156.09 1.71123 157.276C22.8882 157.066 43.6179 149.377 59.9507 135.889C64.5794 132.072 68.7963 127.785 72.5577 123.106C73.5505 121.876 72.6722 119.754 70.9102 120.271C61.47 123.027 52.0271 125.783 42.5869 128.542C38.2555 129.805 33.9404 131.178 29.5736 132.313C26.1013 133.215 22.3645 133.95 18.7669 133.425C15.3274 132.922 12.3434 130.959 11.1733 127.571C9.93766 124 10.5295 120.008 11.2169 116.388C12.5507 109.361 14.5118 102.449 17.0239 95.7553C27.026 69.1126 45.9663 45.9234 69.6364 30.2889C82.9879 21.4708 97.8315 15.0809 113.472 11.7177C115.525 11.2748 114.653 8.14123 112.604 8.56504C86.5392 13.9844 60.4744 19.4037 34.4096 24.8203C31.1501 25.4984 27.8852 26.1519 24.6339 26.8546C22.2936 27.3604 19.8743 28.0029 17.9186 29.4493C13.4153 32.7742 13.9063 38.601 13.9581 43.5965C14.0999 56.8878 14.239 70.179 14.3809 83.473C14.5391 98.4541 14.6973 113.441 14.8555 128.424C15.9465 128.274 17.0376 128.126 18.1286 127.979C14.2909 101.09 10.4559 74.037 10.8596 46.8065C10.9741 39.1533 11.4351 31.511 12.2997 23.907C11.1841 24.0574 10.0658 24.2105 8.94753 24.3609C13.8981 55.2445 18.9059 86.1171 23.9029 116.995C24.923 123.309 25.174 131.563 30.6401 135.881C31.6574 136.682 33.4604 136.274 33.4058 134.732C32.5412 110.088 31.712 85.4444 30.8664 60.8005C30.6237 53.7953 30.3836 46.7873 30.1436 39.7821C29.0171 39.7821 27.8906 39.7821 26.7641 39.7821C28.938 65.1698 31.1119 90.5576 33.2858 115.945C34.1123 125.611 35.2278 136.307 43.4761 142.681C50.7424 148.3 60.5944 148.699 69.3854 148.24C81.4714 147.605 93.5519 146.137 105.602 145.046C118.196 143.903 130.789 142.782 143.39 141.743C168.809 139.643 194.263 137.871 219.755 136.942C245.086 136.017 270.455 135.968 295.775 137.259C298.898 137.417 302.019 137.598 305.139 137.797C305.139 136.687 305.139 135.58 305.139 134.47C290.244 135.307 275.302 134.133 260.723 130.959C260.573 132.069 260.423 133.179 260.273 134.289C284.48 134.281 308.691 134.273 332.901 134.265C338.95 134.265 345.003 134.262 351.055 134.259C355.278 134.259 361.068 135.104 364.557 132.075C368.247 128.87 366.829 123.421 366.204 119.24C365.329 113.383 364.358 107.54 363.319 101.711C360.968 88.5342 358.194 75.4315 355.174 62.3918C354.781 60.6993 352.362 61.1751 352.269 62.7883C350.777 88.7037 350.54 114.682 351.552 140.622C352.733 140.463 353.914 140.302 355.095 140.143C349.411 109.06 347.627 77.6464 350.581 46.1531C351.421 37.1929 352.632 28.2764 354.187 19.4147C354.53 17.4569 351.669 16.5874 351.162 18.5806C346.855 35.5358 340.666 51.9469 332.677 67.5049C333.629 67.9069 334.581 68.3088 335.53 68.7108C340.781 48.7014 346.069 28.7002 351.233 8.66624C351.527 7.52332 350.496 6.53897 349.375 6.80419C326.813 12.1579 303.601 13.0356 280.506 12.9837C257.082 12.9317 233.652 12.4942 210.227 12.2208C196.968 12.0677 183.707 11.92 170.448 11.7259C170.448 12.5434 170.448 13.361 170.448 14.1812C196.873 10.6212 221.394 23.5844 242.456 38.1744C248.643 42.4618 254.662 46.9816 260.636 51.5587C261.105 50.7548 261.574 49.9482 262.043 49.1443C244.849 37.737 227.242 26.9612 209.264 16.8362C209.15 17.7221 209.033 18.6081 208.918 19.494C237.244 14.7965 264.288 28.2382 287.366 43.293C294.112 47.6952 300.69 52.3488 307.22 57.0654C308.849 58.2439 310.357 55.5616 308.783 54.3859C298.402 46.6151 288.018 38.8443 277.637 31.0735C272.534 27.2537 267.422 23.4477 262.33 19.6143C258.14 16.4644 253.678 12.9781 251.608 7.98535C250.945 8.65251 250.279 9.31701 249.616 9.98144C275.556 16.9757 300.186 28.3885 322.323 43.6375C323.602 44.5179 325.023 43.0687 324.753 41.7645C321.338 25.3562 301.209 21.4817 290.277 11.6657C287.107 8.82202 284.685 5.40693 283.711 1.21256C283.038 1.88793 282.367 2.56059 281.693 3.23322C299.253 8.26427 314.47 20.131 323.668 35.946C324.519 35.2898 325.37 34.6309 326.221 33.9692C318.652 27.1745 314.083 17.528 313.726 7.33462C312.667 7.47954 311.606 7.62448 310.545 7.76666C317.427 24.823 322.146 42.7106 324.423 60.97C324.671 62.9715 327.355 63.0153 327.565 60.97C329.297 43.9793 331.043 26.9886 332.851 10.0033C331.774 10.0033 330.694 10.0033 329.614 10.0033C332.393 46.2242 335.173 82.4422 337.952 118.663C338.732 128.813 339.676 138.946 340.571 149.087C341.809 149.087 343.045 149.087 344.283 149.087C341.465 118.685 338.942 88.258 336.346 57.8366C335.683 50.1041 335.23 42.243 331.883 35.1175C331.319 33.9144 329.617 34.1413 328.995 35.1175C321.434 46.9596 318.783 61.5825 318.27 75.4207C317.689 91.0908 319.994 106.668 321.467 122.229C322.345 131.503 322.95 140.783 322.421 150.102C323.354 149.566 324.287 149.03 325.22 148.491C320.463 145.412 318.335 140.07 317.397 134.678C316.295 128.331 316.573 121.884 316.704 115.472C317.037 99.217 317.782 82.9863 318.69 66.7557C319.205 57.4974 319.762 48.242 320.321 38.9892C320.438 37.0534 317.61 37.16 317.381 38.9892C314.02 65.5362 310.635 92.1625 304.201 118.174C302.365 125.592 300.273 132.944 297.892 140.206C298.928 140.346 299.968 140.488 301.004 140.627C300.025 107.737 300.633 74.7944 303.167 41.9805C303.887 32.6375 304.801 23.3192 305.878 14.009C306.02 12.7786 304.045 12.2727 303.533 13.3746C289.824 42.7406 287.672 75.5929 288.261 107.554C288.433 116.752 288.812 125.944 289.246 135.134C290.107 134.776 290.967 134.421 291.829 134.062C281.115 121.395 273.488 105.741 269.149 89.7756C268.273 90.0189 267.4 90.2595 266.525 90.5001C270.594 104.541 275.714 118.245 281.788 131.536C282.407 130.915 283.027 130.292 283.649 129.671C270.133 121.75 259.987 108.735 255.601 93.6691C255.088 91.9055 252.598 92.6602 252.9 94.4129C255.197 107.68 257.483 120.943 259.804 134.205C260.595 133.743 261.386 133.28 262.177 132.818C250.413 122.004 244.287 105.924 245.839 90.0024C244.922 90.0024 244.003 90.0024 243.087 90.0024C243.016 104.081 242.852 118.436 237.825 131.782C238.66 131.673 239.494 131.563 240.326 131.454C233.33 118.154 230.512 102.977 232.195 88.0393C232.359 86.5929 229.931 86.2619 229.65 87.6947C225.982 106.496 222.313 125.296 218.642 144.097C219.474 144.209 220.303 144.321 221.135 144.434C220.038 124.178 221.048 103.843 224.19 83.8012C223.363 83.6891 222.537 83.577 221.71 83.4649C220.156 100.972 216.141 118.19 209.854 134.593C210.625 134.494 211.4 134.391 212.175 134.289C207.194 124.028 209.597 111.661 210.623 100.778C211.779 88.5177 212.938 76.2573 214.095 63.9942C214.766 56.9015 215.434 49.8087 216.102 42.716C216.242 41.2504 213.948 41.0016 213.582 42.3742C206.755 67.9861 199.83 93.9835 187.373 117.531C183.857 124.178 179.902 130.579 175.461 136.646C176.206 136.849 176.948 137.051 177.693 137.253C179.566 113.695 181.47 89.9642 187.446 67.0209C189.113 60.6118 191.181 54.3093 193.575 48.1381C192.825 47.9303 192.072 47.7225 191.322 47.5147C187.389 74.7316 183.603 102.851 190.883 129.86C191.2 131.038 193.043 131.104 193.327 129.86C199.205 104.035 203.046 77.7667 204.818 51.3372C204.925 49.7459 202.454 49.7541 202.347 51.3372Z" fill="#201D1D"/>
<path d="M337.675 108.939C313.759 110.413 289.89 112.574 266.099 115.44C242.287 118.306 218.555 121.865 194.95 126.112C181.651 128.505 168.339 130.995 155.135 133.867C153.051 134.319 153.595 137.43 155.624 137.482C195.308 138.493 234.995 139.493 274.684 140.297C285.907 140.526 297.13 140.746 308.354 141C309.391 141.024 309.965 139.376 308.916 138.929C282.075 127.456 254.024 118.573 225.476 112.437C217.397 110.702 209.268 109.318 201.153 107.773C201.041 108.596 200.932 109.416 200.82 110.238C218.669 110.691 236.442 113.154 253.737 117.584C262.404 119.805 270.882 122.584 279.281 125.646C287.396 128.605 295.511 131.662 303.91 133.728C313.161 136.003 322.707 136.905 332.111 135.019C332.884 134.864 333.154 134.041 333.053 133.363C328.912 105.737 327.099 77.7961 327.558 49.8685C326.67 49.9857 325.782 50.1082 324.895 50.2281C327.749 70.1671 330.6 90.106 333.457 110.045C334.342 109.803 335.23 109.56 336.115 109.315C329.494 87.4986 321.846 63.8188 301.809 50.5634C293.585 45.125 283.088 41.6646 273.223 43.9125C268.702 44.9424 264.499 47.3319 261.844 51.19C259.006 55.3124 258.577 60.5846 259.724 65.3527C262.792 78.1313 275.307 84.1418 286.372 88.8554C287.639 89.3949 289.401 88.1907 288.469 86.763C273.01 63.0831 245.06 52.1518 219.399 43.2994C211.418 40.5475 203.363 38.0027 195.248 35.6704C191.192 34.5043 187.119 33.3899 183.033 32.3327C179.472 31.4091 175.885 30.3546 172.242 29.8015C166.47 28.9296 159.579 29.7633 157.364 36.0818C155.141 42.4302 159.391 49.2392 162.401 54.5441C172.023 71.4995 181.684 88.4332 191.386 105.342C192.192 104.536 193 103.732 193.806 102.928C172.507 87.6758 151.167 72.4641 128.942 58.5684C122.662 54.6421 116.317 50.8249 109.896 47.1384C108.604 46.3973 106.984 47.6234 107.38 49.0675C113.34 70.8647 127.997 89.9454 147.291 101.713C152.74 105.037 158.555 107.737 164.599 109.792C166.061 110.29 167.028 108.576 166.451 107.391C153.589 80.9459 130.354 61.1077 104.933 47.0758C90.3283 39.0163 74.8443 32.657 59.1717 26.9843C51.442 24.1834 43.532 21.821 35.8405 18.9274C33.8165 18.1673 30.6454 16.0011 33.1583 13.8596C35.1331 12.173 38.3724 11.8134 40.8634 11.8543C44.9905 11.9224 49.1231 12.4537 53.2556 12.5572C57.6695 12.6689 62.0834 12.6308 66.4945 12.4946C75.3469 12.2139 84.1773 11.5382 93.0051 10.8762C110.622 9.5547 128.182 8.56832 145.81 10.2712C163.236 11.9551 180.406 15.4944 197.654 18.3825C215.113 21.3088 232.659 23.1017 250.359 23.6466C268.145 24.1943 285.921 23.6493 303.694 23.0008C321.718 22.3415 339.734 21.5377 357.753 20.7938C362.131 20.614 366.507 20.4097 370.882 20.2026C370.328 19.6468 369.771 19.0909 369.214 18.5351C369.869 48.6043 367.851 78.7443 363.24 108.467C361.926 116.938 360.383 125.371 358.676 133.771C358.324 135.518 360.498 136.42 361.514 134.965C369.847 123.028 371.033 107.838 372.775 93.8279C374.827 77.3029 376.542 60.7372 377.924 44.1441C378.708 34.7577 379.391 25.3658 379.997 15.9685C380.095 14.4509 377.727 14.4536 377.629 15.9685C376.577 32.2483 375.138 48.5062 373.398 64.7287C372.527 72.84 371.576 80.9458 370.552 89.0408C369.596 96.5935 368.736 104.195 367.277 111.672C365.772 119.377 363.412 126.93 358.834 133.403C359.78 133.801 360.725 134.199 361.67 134.597C367.894 104.885 371.431 74.5783 372.368 44.2448C372.633 35.6785 372.688 27.1041 372.554 18.5351C372.54 17.6632 371.8 16.8294 370.882 16.8676C334.266 18.3798 297.614 21.197 260.945 20.7557C242.815 20.535 224.722 19.3334 206.793 16.5815C189.313 13.895 171.993 10.2386 154.447 7.98255C145.573 6.84365 136.652 6.09716 127.701 6.00997C118.62 5.92279 109.546 6.41856 100.489 7.0534C82.5221 8.31219 64.4979 10.1377 46.4737 9.00429C41.3087 8.68006 33.4424 7.57937 29.9216 12.6118C28.4139 14.7697 28.8318 17.6496 30.6236 19.5241C32.9835 21.9954 37.0177 22.7393 40.1287 23.7828C56.3967 29.2457 72.621 34.9729 88.2033 42.1932C115.79 54.9772 142.093 73.0771 158.301 99.3372C160.24 102.481 162.01 105.721 163.619 109.042C164.236 108.241 164.853 107.44 165.471 106.639C144.936 99.6232 127.576 84.4388 117.44 65.3418C114.542 59.8816 112.294 54.1244 110.682 48.1602C109.844 48.8032 109.005 49.4462 108.167 50.0892C130.856 63.2193 152.478 78.0469 173.894 93.1251C179.95 97.3891 185.986 101.683 192.019 105.974C193.519 107.042 195.273 105.002 194.442 103.56C186.303 89.4767 178.191 75.3793 170.103 61.2684C168.096 57.7645 166.088 54.2634 164.086 50.7568C162.48 47.9423 160.948 45.0214 160.314 41.8118C159.746 38.94 160.243 35.8148 162.816 34.052C165.192 32.4281 168.393 32.5126 171.127 32.8886C174.531 33.3545 177.882 34.3571 181.198 35.2126C184.964 36.1826 188.717 37.2016 192.459 38.2615C199.94 40.3867 207.37 42.6891 214.742 45.1713C227.901 49.5988 241.075 54.3752 253.39 60.838C266.072 67.497 277.863 76.2349 285.823 88.3078C286.399 87.5586 286.975 86.8093 287.554 86.06C278.396 82.2101 267.828 77.6354 263.647 67.9112C261.803 63.6253 261.254 58.4321 263.42 54.1517C265.422 50.201 269.301 47.806 273.501 46.7406C282.668 44.4138 292.517 47.8114 300.179 52.8193C308.515 58.2632 315.01 66.1019 319.858 74.7091C326.083 85.763 329.786 97.9748 333.457 110.045C333.987 111.789 336.361 111.023 336.115 109.315C333.25 89.3787 330.379 69.4451 327.511 49.5089C327.287 47.964 324.87 48.3945 324.845 49.8685C324.406 78.0386 326.304 106.211 330.45 134.079C330.764 133.526 331.078 132.976 331.392 132.423C314.057 135.88 296.945 129.229 280.903 123.415C264.327 117.404 247.431 112.737 229.953 110.192C220.297 108.789 210.574 107.974 200.82 107.726C199.165 107.686 199.249 110.061 200.82 110.238C215.146 111.865 229.431 115.045 243.394 118.565C257.427 122.107 271.221 126.453 284.782 131.507C292.539 134.398 300.211 137.518 307.791 140.85C307.977 140.158 308.165 139.469 308.354 138.776C268.667 137.469 228.983 136.106 189.294 134.858C178.07 134.504 166.85 134.139 155.624 133.801C155.788 135.006 155.952 136.212 156.116 137.417C179.428 132.346 202.787 127.703 226.35 123.911C250.001 120.104 273.764 116.996 297.597 114.584C310.937 113.238 324.299 112.11 337.675 111.195C339.117 111.097 339.133 108.849 337.675 108.939Z" fill="#201D1D"/>
</svg>
