<svg width="1007" height="206" viewBox="0 0 1007 206" fill="none" xmlns="http://www.w3.org/2000/svg">
<path d="M82.4163 0.483512C44.262 3.78018 14.1402 25.5821 3.75037 57.318C1.26204 65.0542 0.301636 71.208 0.0397074 81.3178C-0.265876 93.8451 1.17474 103.559 4.97271 113.757C17.1961 146.636 46.7504 168.042 84.3808 171.163L90.4925 171.646L90.6234 186.591C90.798 203.426 90.8853 203.91 93.8975 205.404C95.993 206.459 98.3503 206.108 100.62 204.393C101.537 203.734 106.208 199.558 111.01 195.163C115.812 190.723 123.539 183.646 128.167 179.427L136.636 171.734L142.485 170.723C161.082 167.559 175.445 161.141 188.847 149.976C204.082 137.317 213.555 119.559 215.52 99.823C215.825 96.922 216 77.9771 216 47.6478V-1.89313e-06L151.304 0.0439563C115.681 0.0879119 84.6864 0.263734 82.4163 0.483512ZM201.07 27.9997L200.939 41.538L173.218 41.4501C157.983 41.4061 132.838 41.2743 117.34 41.0984C87.7859 40.7907 84.3808 40.9666 78.0508 42.6808C70.062 44.8786 61.4184 50.5489 55.9179 57.1422C52.7747 60.8784 48.8458 68.4388 47.7108 72.9662C46.5757 77.3178 46.3138 87.7353 47.2305 92.2627C48.8458 100.307 52.3382 107.383 57.4894 113.054C63.9067 120.087 71.0224 124.218 81.1067 126.724C84.7737 127.647 85.6904 127.647 137.116 127.779C169.158 127.867 189.371 128.086 189.371 128.35C189.371 128.878 184.874 134.108 182.342 136.57C178.981 139.779 172.345 144.482 167.369 147.163C159.161 151.647 149.383 154.767 138.6 156.438C129.389 157.888 128.472 158.416 115.856 170.064C112.014 173.58 108.173 177.141 107.212 177.932L105.553 179.427V157.053L98.0447 156.745C74.5585 155.822 58.2752 151.031 43.7818 140.702C38.9798 137.317 30.8163 128.966 27.5859 124.174C15.3625 106.065 12.0011 83.5155 18.4184 62.3729C20.8194 54.3291 26.3636 45.1863 33.0864 38.0655C46.0082 24.4393 62.5097 17.1427 85.2539 14.9888C87.4366 14.813 114.372 14.5932 145.192 14.5493L201.157 14.5053L201.07 27.9997ZM200.948 78.0074L127.192 78.7647V55.2868H200.948V78.0074ZM200.939 92.3678C200.88 100.236 200.195 102.199 198.69 107.5C198.272 108.971 195.679 112.846 195.679 112.846H127.293L127.192 89.3676H200.939C200.939 89.3676 200.948 91.2171 200.939 92.3678Z" fill="#6A7FDB"/>
<path d="M949.678 149.97C942.848 149.97 936.807 148.854 931.554 146.621C926.432 144.257 922.163 140.974 918.749 136.771C915.334 132.568 912.707 127.643 910.869 121.996C909.03 116.217 907.979 109.913 907.717 103.084C907.585 100.72 907.52 98.6187 907.52 96.78C907.52 94.81 907.585 92.643 907.717 90.279C907.979 83.7123 908.964 77.6053 910.672 71.958C912.51 66.3107 915.137 61.3857 918.552 57.183C922.098 52.849 926.432 49.5 931.554 47.136C936.807 44.772 942.848 43.59 949.678 43.59C956.77 43.59 962.745 44.8377 967.605 47.333C972.595 49.697 976.732 52.7833 980.016 56.592V12.858C980.016 11.5447 980.41 10.4283 981.198 9.50901C982.117 8.58967 983.299 8.13 984.744 8.13H1001.49C1002.8 8.13 1003.92 8.58967 1004.84 9.50901C1005.76 10.4283 1006.22 11.5447 1006.22 12.858V143.272C1006.22 144.585 1005.76 145.702 1004.84 146.621C1003.92 147.54 1002.8 148 1001.49 148H985.926C984.481 148 983.299 147.54 982.38 146.621C981.592 145.702 981.198 144.585 981.198 143.272V135.983C977.914 140.054 973.712 143.403 968.59 146.03C963.599 148.657 957.295 149.97 949.678 149.97ZM956.967 128.891C962.483 128.891 966.882 127.643 970.166 125.148C973.449 122.653 975.879 119.501 977.455 115.692C979.031 111.752 979.884 107.746 980.016 103.675C980.147 101.311 980.213 98.8157 980.213 96.189C980.213 93.431 980.147 90.87 980.016 88.506C979.884 84.566 978.965 80.823 977.258 77.277C975.55 73.5997 973.055 70.579 969.772 68.215C966.488 65.851 962.22 64.669 956.967 64.669C951.451 64.669 947.051 65.9167 943.768 68.412C940.616 70.776 938.317 73.928 936.873 77.868C935.428 81.808 934.574 86.142 934.312 90.87C934.18 94.81 934.18 98.75 934.312 102.69C934.574 107.418 935.428 111.752 936.873 115.692C938.317 119.632 940.616 122.85 943.768 125.345C947.051 127.709 951.451 128.891 956.967 128.891Z" fill="#6A7FDB"/>
<path d="M804.85 148C803.537 148 802.421 147.54 801.501 146.621C800.582 145.702 800.122 144.585 800.122 143.272V15.025C800.122 13.5803 800.582 12.3983 801.501 11.479C802.421 10.5597 803.537 10.1 804.85 10.1H891.53C892.975 10.1 894.157 10.5597 895.076 11.479C895.996 12.3983 896.455 13.5803 896.455 15.025V28.027C896.455 29.3403 895.996 30.4567 895.076 31.376C894.157 32.2953 892.975 32.755 891.53 32.755H826.717V67.624H887.196C888.641 67.624 889.823 68.0837 890.742 69.003C891.662 69.791 892.121 70.9073 892.121 72.352V84.566C892.121 86.0107 891.662 87.1927 890.742 88.112C889.823 88.9 888.641 89.294 887.196 89.294H826.717V125.345H893.106C894.551 125.345 895.733 125.805 896.652 126.724C897.572 127.643 898.031 128.825 898.031 130.27V143.272C898.031 144.585 897.572 145.702 896.652 146.621C895.733 147.54 894.551 148 893.106 148H804.85Z" fill="#6A7FDB"/>
<path d="M734.364 149.97C723.858 149.97 714.993 148.131 707.769 144.454C700.677 140.777 695.227 135.589 691.418 128.891C687.741 122.193 685.64 114.379 685.114 105.448C684.983 103.084 684.917 100.195 684.917 96.78C684.917 93.3653 684.983 90.476 685.114 88.112C685.64 79.05 687.807 71.2357 691.615 64.669C695.555 57.971 701.071 52.7833 708.163 49.106C715.387 45.4287 724.12 43.59 734.364 43.59C744.608 43.59 753.276 45.4287 760.368 49.106C767.592 52.7833 773.108 57.971 776.916 64.669C780.856 71.2357 783.089 79.05 783.614 88.112C783.746 90.476 783.811 93.3653 783.811 96.78C783.811 100.195 783.746 103.084 783.614 105.448C783.089 114.379 780.922 122.193 777.113 128.891C773.436 135.589 767.986 140.777 760.762 144.454C753.67 148.131 744.871 149.97 734.364 149.97ZM734.364 130.467C741.325 130.467 746.71 128.3 750.518 123.966C754.327 119.501 756.428 113 756.822 104.463C756.954 102.493 757.019 99.932 757.019 96.78C757.019 93.628 756.954 91.067 756.822 89.097C756.428 80.6917 754.327 74.2563 750.518 69.791C746.71 65.3257 741.325 63.093 734.364 63.093C727.404 63.093 722.019 65.3257 718.21 69.791C714.402 74.2563 712.3 80.6917 711.906 89.097C711.775 91.067 711.709 93.628 711.709 96.78C711.709 99.932 711.775 102.493 711.906 104.463C712.3 113 714.402 119.501 718.21 123.966C722.019 128.3 727.404 130.467 734.364 130.467Z" fill="#383839"/>
<path d="M623.716 148C621.615 148 620.039 147.54 618.988 146.621C618.069 145.57 617.281 144.388 616.624 143.075L579.785 51.667C579.523 51.0103 579.391 50.4193 579.391 49.894C579.391 48.712 579.785 47.727 580.573 46.939C581.493 46.0197 582.543 45.56 583.725 45.56H599.682C601.258 45.56 602.44 46.0197 603.228 46.939C604.016 47.727 604.542 48.515 604.804 49.303L631.005 118.45L657.206 49.303C657.469 48.515 657.994 47.727 658.782 46.939C659.57 46.0197 660.752 45.56 662.328 45.56H678.482C679.533 45.56 680.452 46.0197 681.24 46.939C682.16 47.727 682.619 48.712 682.619 49.894C682.619 50.4193 682.554 51.0103 682.422 51.667L645.386 143.075C644.861 144.388 644.073 145.57 643.022 146.621C641.972 147.54 640.396 148 638.294 148H623.716Z" fill="#383839"/>
<path d="M480.222 148C478.909 148 477.792 147.54 476.873 146.621C475.954 145.702 475.494 144.585 475.494 143.272V50.288C475.494 48.9747 475.954 47.8583 476.873 46.939C477.792 46.0197 478.909 45.56 480.222 45.56H496.376C497.689 45.56 498.806 46.0197 499.725 46.939C500.644 47.8583 501.104 48.9747 501.104 50.288V58.365C504.519 54.1623 508.853 50.682 514.106 47.924C519.491 45.0347 526.123 43.59 534.003 43.59C542.014 43.59 548.975 45.4287 554.885 49.106C560.795 52.652 565.326 57.7083 568.478 64.275C571.761 70.8417 573.403 78.7217 573.403 87.915V143.272C573.403 144.585 572.943 145.702 572.024 146.621C571.105 147.54 569.988 148 568.675 148H551.339C550.026 148 548.909 147.54 547.99 146.621C547.071 145.702 546.611 144.585 546.611 143.272V89.097C546.611 81.4797 544.707 75.504 540.898 71.17C537.221 66.836 531.836 64.669 524.744 64.669C517.915 64.669 512.464 66.836 508.393 71.17C504.322 75.504 502.286 81.4797 502.286 89.097V143.272C502.286 144.585 501.826 145.702 500.907 146.621C499.988 147.54 498.871 148 497.558 148H480.222Z" fill="#383839"/>
<path d="M412.1 149.97C401.593 149.97 392.728 148.131 385.505 144.454C378.413 140.777 372.963 135.589 369.154 128.891C365.477 122.193 363.375 114.379 362.85 105.448C362.719 103.084 362.653 100.195 362.653 96.78C362.653 93.3653 362.719 90.476 362.85 88.112C363.375 79.05 365.542 71.2357 369.351 64.669C373.291 57.971 378.807 52.7833 385.899 49.106C393.122 45.4287 401.856 43.59 412.1 43.59C422.344 43.59 431.012 45.4287 438.104 49.106C445.327 52.7833 450.843 57.971 454.652 64.669C458.592 71.2357 460.825 79.05 461.35 88.112C461.481 90.476 461.547 93.3653 461.547 96.78C461.547 100.195 461.481 103.084 461.35 105.448C460.825 114.379 458.658 122.193 454.849 128.891C451.172 135.589 445.721 140.777 438.498 144.454C431.406 148.131 422.607 149.97 412.1 149.97ZM412.1 130.467C419.061 130.467 424.445 128.3 428.254 123.966C432.063 119.501 434.164 113 434.558 104.463C434.689 102.493 434.755 99.932 434.755 96.78C434.755 93.628 434.689 91.067 434.558 89.097C434.164 80.6917 432.063 74.2563 428.254 69.791C424.445 65.3257 419.061 63.093 412.1 63.093C405.139 63.093 399.755 65.3257 395.946 69.791C392.137 74.2563 390.036 80.6917 389.642 89.097C389.511 91.067 389.445 93.628 389.445 96.78C389.445 99.932 389.511 102.493 389.642 104.463C390.036 113 392.137 119.501 395.946 123.966C399.755 128.3 405.139 130.467 412.1 130.467Z" fill="#383839"/>
<path d="M295.556 149.97C283.342 149.97 272.967 147.869 264.43 143.666C256.025 139.332 249.589 133.225 245.124 125.345C240.659 117.334 238.163 107.746 237.638 96.583C237.507 91.1983 237.441 85.4197 237.441 79.247C237.441 73.0743 237.507 67.1643 237.638 61.517C238.163 50.485 240.659 40.9633 245.124 32.952C249.721 24.9407 256.222 18.8337 264.627 14.631C273.164 10.297 283.473 8.13 295.556 8.13C304.487 8.13 312.498 9.31201 319.59 11.676C326.682 14.04 332.723 17.3233 337.714 21.526C342.705 25.5973 346.579 30.391 349.337 35.907C352.095 41.423 353.54 47.3987 353.671 53.834C353.802 55.016 353.408 56.001 352.489 56.789C351.701 57.577 350.716 57.971 349.534 57.971H330.819C329.374 57.971 328.192 57.6427 327.273 56.986C326.354 56.198 325.697 54.9503 325.303 53.243C323.202 44.575 319.59 38.665 314.468 35.513C309.346 32.361 302.976 30.785 295.359 30.785C286.56 30.785 279.533 33.2803 274.28 38.271C269.027 43.1303 266.203 51.2073 265.809 62.502C265.415 73.2713 265.415 84.3033 265.809 95.598C266.203 106.893 269.027 115.035 274.28 120.026C279.533 124.885 286.56 127.315 295.359 127.315C302.976 127.315 309.346 125.739 314.468 122.587C319.59 119.304 323.202 113.394 325.303 104.857C325.697 103.018 326.354 101.771 327.273 101.114C328.192 100.457 329.374 100.129 330.819 100.129H349.534C350.716 100.129 351.701 100.523 352.489 101.311C353.408 102.099 353.802 103.084 353.671 104.266C353.54 110.701 352.095 116.677 349.337 122.193C346.579 127.709 342.705 132.568 337.714 136.771C332.723 140.842 326.682 144.06 319.59 146.424C312.498 148.788 304.487 149.97 295.556 149.97Z" fill="#383839"/>
</svg>
