<svg width="216" height="206" viewBox="0 0 216 206" fill="none" xmlns="http://www.w3.org/2000/svg">
<path d="M82.4163 0.483512C44.262 3.78018 14.1402 25.5821 3.75037 57.318C1.26204 65.0542 0.301636 71.208 0.0397074 81.3178C-0.265876 93.8451 1.17474 103.559 4.97271 113.757C17.1961 146.636 46.7504 168.042 84.3808 171.163L90.4925 171.646L90.6234 186.591C90.798 203.426 90.8853 203.91 93.8975 205.404C95.993 206.459 98.3503 206.108 100.62 204.393C101.537 203.734 106.208 199.558 111.01 195.163C115.812 190.723 123.539 183.646 128.167 179.427L136.636 171.734L142.485 170.723C161.082 167.559 175.445 161.141 188.847 149.976C204.082 137.317 213.555 119.559 215.52 99.823C215.825 96.922 216 77.9771 216 47.6478V-1.89313e-06L151.304 0.0439563C115.681 0.0879119 84.6864 0.263734 82.4163 0.483512ZM201.07 27.9997L200.939 41.538L173.218 41.4501C157.983 41.4061 132.838 41.2743 117.34 41.0984C87.7859 40.7907 84.3808 40.9666 78.0508 42.6808C70.062 44.8786 61.4184 50.5489 55.9179 57.1422C52.7747 60.8784 48.8458 68.4388 47.7108 72.9662C46.5757 77.3178 46.3138 87.7353 47.2305 92.2627C48.8458 100.307 52.3382 107.383 57.4894 113.054C63.9067 120.087 71.0224 124.218 81.1067 126.724C84.7737 127.647 85.6904 127.647 137.116 127.779C169.158 127.867 189.371 128.086 189.371 128.35C189.371 128.878 184.874 134.108 182.342 136.57C178.981 139.779 172.345 144.482 167.369 147.163C159.161 151.647 149.383 154.767 138.6 156.438C129.389 157.888 128.472 158.416 115.856 170.064C112.014 173.58 108.173 177.141 107.212 177.932L105.553 179.427V157.053L98.0447 156.745C74.5585 155.822 58.2752 151.031 43.7818 140.702C38.9798 137.317 30.8163 128.966 27.5859 124.174C15.3625 106.065 12.0011 83.5155 18.4184 62.3729C20.8194 54.3291 26.3636 45.1863 33.0864 38.0655C46.0082 24.4393 62.5097 17.1427 85.2539 14.9888C87.4366 14.813 114.372 14.5932 145.192 14.5493L201.157 14.5053L201.07 27.9997ZM200.948 78.0074L127.192 78.7647V55.2868H200.948V78.0074ZM200.939 92.3678C200.88 100.236 200.195 102.199 198.69 107.5C198.272 108.971 195.679 112.846 195.679 112.846H127.293L127.192 89.3676H200.939C200.939 89.3676 200.948 91.2171 200.939 92.3678Z" fill="#6A7FDB"/>
</svg>

